<?xml version="1.0" encoding="UTF-8" standalone="no"?><!DOCTYPE svg PUBLIC "-//W3C//DTD SVG 1.1//EN" "http://www.w3.org/Graphics/SVG/1.1/DTD/svg11.dtd"><svg width="100%" height="100%" viewBox="0 0 66 20" version="1.1" xmlns="http://www.w3.org/2000/svg" xmlns:xlink="http://www.w3.org/1999/xlink" xml:space="preserve" xmlns:serif="http://www.serif.com/" style="fill-rule:evenodd;clip-rule:evenodd;stroke-linejoin:round;stroke-miterlimit:2;"><g id="btnBackBottom"><path d="M65.684,20l-65,-0l-0,-9.313c-0,-5.512 4.475,-9.986 9.987,-9.986l45.026,-0c5.512,-0 9.987,4.474 9.987,9.986l-0,9.313Z" style="fill:#2c1f6d;"/><path d="M65.684,20l-65,-0l-0,-9.313c-0,-5.512 4.475,-9.986 9.987,-9.986l45.026,-0c5.512,-0 9.987,4.474 9.987,9.986l-0,9.313Zm-2.41,-2.41l0,-6.903c0,-4.182 -3.395,-7.577 -7.577,-7.577l-45.026,0c-4.182,0 -7.577,3.395 -7.577,7.577c-0,0 -0,6.903 -0.001,6.903l60.181,0Z" style="fill:#e0e0b1;"/><path d="M63.243,20l-60.179,-0l-0,-8.007c-0,-4.739 4.143,-8.586 9.246,-8.586l41.687,0c5.103,0 9.246,3.847 9.246,8.586l-0,8.007Z" style="fill:#2c1f6d;"/><clipPath id="_clip1"><path d="M63.243,20l-60.179,-0l-0,-8.007c-0,-4.739 4.143,-8.586 9.246,-8.586l41.687,0c5.103,0 9.246,3.847 9.246,8.586l-0,8.007Z"/></clipPath><g clip-path="url(#_clip1)"><path d="M26.754,14.175l0,3.606l-5.101,-5.547l5.101,-5.547l0,3.606l17.899,-0l0,3.882l-17.899,0Z" style="fill:#ece200;"/></g></g></svg>