<?xml version="1.0" encoding="UTF-8" standalone="no"?><!DOCTYPE svg PUBLIC "-//W3C//DTD SVG 1.1//EN" "http://www.w3.org/Graphics/SVG/1.1/DTD/svg11.dtd"><svg width="100%" height="100%" viewBox="0 0 56 32" version="1.1" xmlns="http://www.w3.org/2000/svg" xmlns:xlink="http://www.w3.org/1999/xlink" xml:space="preserve" xmlns:serif="http://www.serif.com/" style="fill-rule:evenodd;clip-rule:evenodd;stroke-linejoin:round;stroke-miterlimit:2;"><g id="btnHelp"><g><path d="M55.293,15.728c-0,-8.646 -7.019,-15.665 -15.665,-15.665l-23.67,0c-8.646,0 -15.665,7.019 -15.665,15.665c-0,8.645 7.019,15.665 15.665,15.665l23.67,-0c8.646,-0 15.665,-7.02 15.665,-15.665Z" style="fill:#2c1f6d;"/><path d="M55.293,15.728c-0,8.645 -7.019,15.665 -15.665,15.665l-23.67,-0c-8.646,-0 -15.665,-7.02 -15.665,-15.665c-0,-8.646 7.019,-15.665 15.665,-15.665l23.67,0c8.646,0 15.665,7.019 15.665,15.665Zm-1.859,-0c-0,-7.62 -6.186,-13.806 -13.806,-13.806l-23.67,0c-7.62,0 -13.806,6.186 -13.806,13.806c-0,7.619 6.186,13.806 13.806,13.806l23.67,-0c7.62,-0 13.806,-6.187 13.806,-13.806Z" style="fill:#e0e0b1;"/><g transform="matrix(0.853156,0,0,1,-27.145,2.27374e-13)"><g transform="matrix(13.5896,0,0,13.5896,85.6499,20.7799)"></g><text x="72.06px" y="20.78px" style="font-family:'ItalianPlumber', 'Italian Plumber';font-weight:500;font-size:13.59px;fill:#dfe0b1;">1</text></g></g><g id="btnHelp1" serif:id="btnHelp" transform="matrix(0.380952,0,0,0.380952,-16.1687,-181.863)"><g transform="matrix(48,0,0,48,133.399,533.676)"></g><text x="85.399px" y="533.676px" style="font-family:'Early-GameBoy', 'Early GameBoy';font-size:48px;fill:none;stroke:#c84900;stroke-width:2.63px;">?</text><g transform="matrix(48,0,0,48,133.399,533.676)"></g><text x="85.399px" y="533.676px" style="font-family:'Early-GameBoy', 'Early GameBoy';font-size:48px;fill:#ff8400;">?</text></g></g></svg>