<?xml version="1.0" encoding="UTF-8" standalone="no"?><!DOCTYPE svg PUBLIC "-//W3C//DTD SVG 1.1//EN" "http://www.w3.org/Graphics/SVG/1.1/DTD/svg11.dtd"><svg width="100%" height="100%" viewBox="0 0 83 42" version="1.1" xmlns="http://www.w3.org/2000/svg" xmlns:xlink="http://www.w3.org/1999/xlink" xml:space="preserve" xmlns:serif="http://www.serif.com/" style="fill-rule:evenodd;clip-rule:evenodd;stroke-miterlimit:10;"><g id="btnPlay"><g><path d="M82.608,21.063c0,-10.977 -8.911,-19.888 -19.888,-19.888l-42.072,-0c-10.977,-0 -19.889,8.911 -19.889,19.888c0,10.977 8.912,19.889 19.889,19.889l42.072,-0c10.977,-0 19.888,-8.912 19.888,-19.889Z" style="fill:#392793;"/><path d="M82.608,21.063c0,10.977 -8.911,19.889 -19.888,19.889l-42.072,-0c-10.977,-0 -19.889,-8.912 -19.889,-19.889c0,-10.977 8.912,-19.888 19.889,-19.888l42.072,-0c10.977,-0 19.888,8.911 19.888,19.888Zm-3,0c0,-9.321 -7.567,-16.888 -16.888,-16.888l-42.072,-0c-9.321,-0 -16.889,7.567 -16.889,16.888c0,9.321 7.568,16.889 16.889,16.889l42.072,-0c9.321,-0 16.888,-7.568 16.888,-16.889Z" style="fill:#e0e0b1;"/><text x="51.25px" y="27.477px" style="font-family:'ItalianPlumber', 'Italian Plumber';font-weight:500;font-size:17.254px;fill:#dfe0b1;">5</text></g><path id="btnPlay1" serif:id="btnPlay" d="M45.165,21.063l-21.067,-10.5l-0,21l21.067,-10.5Z" style="fill:#39ff00;fill-rule:nonzero;stroke:#439800;stroke-width:2px;"/></g></svg>