<?xml version="1.0" encoding="UTF-8" standalone="no"?>
<!DOCTYPE svg PUBLIC "-//W3C//DTD SVG 1.1//EN" "http://www.w3.org/Graphics/SVG/1.1/DTD/svg11.dtd">
<svg width="100%" height="100%" viewBox="0 0 58 15" version="1.1" xmlns="http://www.w3.org/2000/svg" xmlns:xlink="http://www.w3.org/1999/xlink" xml:space="preserve" xmlns:serif="http://www.serif.com/" style="fill-rule:evenodd;clip-rule:evenodd;stroke-linecap:round;stroke-linejoin:round;stroke-miterlimit:1.5;">
    <g id="btnResetGame">
        <path d="M52.221,0.907C54.919,0.907 57.11,4.237 57.11,8.339C57.11,8.368 57.109,8.397 57.109,8.427L57.11,8.427L57.11,15.796L0.882,15.796L0.882,8.427L0.882,8.427C0.882,8.397 0.882,8.368 0.882,8.339C0.882,4.237 3.072,0.907 5.77,0.907L52.221,0.907Z" style="fill:rgb(62,192,78);stroke:white;stroke-width:2px;"/>
        <path d="M28.306,6.752C27.892,6.506 27.392,6.398 26.88,6.481C25.72,6.668 24.931,7.762 25.119,8.922C25.306,10.081 26.4,10.87 27.56,10.682C28.114,10.593 28.584,10.296 28.903,9.883L31.195,9.891C30.834,11.551 29.678,12.495 27.9,12.783C25.581,13.159 23.393,11.581 23.018,9.262C22.643,6.943 24.22,4.755 26.539,4.38C27.747,4.184 28.92,4.519 29.819,5.212L31.24,3.765L31.281,8.283L26.763,8.323L28.306,6.752Z" style="fill:white;"/>
    </g>
</svg>
