<?xml version="1.0" encoding="UTF-8" standalone="no"?><!DOCTYPE svg PUBLIC "-//W3C//DTD SVG 1.1//EN" "http://www.w3.org/Graphics/SVG/1.1/DTD/svg11.dtd"><svg width="100%" height="100%" viewBox="0 0 56 33" version="1.1" xmlns="http://www.w3.org/2000/svg" xmlns:xlink="http://www.w3.org/1999/xlink" xml:space="preserve" xmlns:serif="http://www.serif.com/" style="fill-rule:evenodd;clip-rule:evenodd;stroke-miterlimit:10;"><g id="btnSoundOn"><g><path d="M55.434,16.728c-0,-8.646 -7.019,-15.665 -15.665,-15.665l-23.67,0c-8.646,0 -15.665,7.019 -15.665,15.665c-0,8.645 7.019,15.665 15.665,15.665l23.67,-0c8.646,-0 15.665,-7.02 15.665,-15.665Z" style="fill:#2c1f6d;"/><path d="M55.434,16.728c-0,8.645 -7.019,15.665 -15.665,15.665l-23.67,-0c-8.646,-0 -15.665,-7.02 -15.665,-15.665c-0,-8.646 7.019,-15.665 15.665,-15.665l23.67,0c8.646,0 15.665,7.019 15.665,15.665Zm-1.859,-0c-0,-7.62 -6.186,-13.806 -13.806,-13.806l-23.67,0c-7.62,0 -13.806,6.186 -13.806,13.806c-0,7.619 6.186,13.806 13.806,13.806l23.67,-0c7.62,-0 13.806,-6.187 13.806,-13.806Z" style="fill:#e0e0b1;"/><g transform="matrix(0.853156,0,0,1,-27.1408,0)"><g transform="matrix(13.5896,0,0,13.5896,85.678,21.7799)"></g><text x="72.088px" y="21.78px" style="font-family:'ItalianPlumber', 'Italian Plumber';font-weight:500;font-size:13.59px;fill:#dfe0b1;">3</text></g></g><path id="btnSoundOn1" serif:id="btnSoundOn" d="M26.934,7.93l-5.446,4.981l-5.675,-0l0,7.039l5.675,-0l5.446,4.98l-0,-17Z" style="fill:#006798;fill-rule:nonzero;stroke:#61bfd9;stroke-width:1.39px;"/></g></svg>