<?xml version="1.0" encoding="UTF-8" standalone="no"?><!DOCTYPE svg PUBLIC "-//W3C//DTD SVG 1.1//EN" "http://www.w3.org/Graphics/SVG/1.1/DTD/svg11.dtd"><svg width="100%" height="100%" viewBox="0 0 56 33" version="1.1" xmlns="http://www.w3.org/2000/svg" xmlns:xlink="http://www.w3.org/1999/xlink" xml:space="preserve" xmlns:serif="http://www.serif.com/" style="fill-rule:evenodd;clip-rule:evenodd;stroke-miterlimit:10;"><g id="btnSoundOff"><g opacity="0.43"><g><path d="M55.434,16.728c-0,-8.646 -7.019,-15.665 -15.665,-15.665l-23.67,0c-8.646,0 -15.665,7.019 -15.665,15.665c-0,8.645 7.019,15.665 15.665,15.665l23.67,-0c8.646,-0 15.665,-7.02 15.665,-15.665Z" style="fill:#2c1f6d;"/><path d="M55.434,16.728c-0,8.645 -7.019,15.665 -15.665,15.665l-23.67,-0c-8.646,-0 -15.665,-7.02 -15.665,-15.665c-0,-8.646 7.019,-15.665 15.665,-15.665l23.67,0c8.646,0 15.665,7.019 15.665,15.665Zm-1.859,-0c-0,-7.62 -6.186,-13.806 -13.806,-13.806l-23.67,0c-7.62,0 -13.806,6.186 -13.806,13.806c-0,7.619 6.186,13.806 13.806,13.806l23.67,-0c7.62,-0 13.806,-6.187 13.806,-13.806Z" style="fill:#e0e0b1;"/><g transform="matrix(0.853156,0,0,1,-27.1408,-2.27374e-13)"><g transform="matrix(13.5896,0,0,13.5896,85.678,21.7799)"></g><text x="72.088px" y="21.78px" style="font-family:'ItalianPlumber', 'Italian Plumber';font-weight:500;font-size:13.59px;fill:#dfe0b1;">3</text></g></g><path id="btnSoundOn" d="M26.934,7.93l-5.446,4.981l-5.675,-0l0,7.039l5.675,-0l5.446,4.98l-0,-17Z" style="fill:#006798;fill-rule:nonzero;stroke:#61bfd9;stroke-width:1.39px;"/></g><g id="btnSoundOff1" serif:id="btnSoundOff" opacity="0.75"><g><path d="M27.934,2.424c-7.822,-0 -14.164,6.332 -14.164,14.143c0,7.81 6.342,14.142 14.164,14.142c7.822,-0 14.163,-6.332 14.163,-14.142c0,-7.811 -6.341,-14.143 -14.163,-14.143m0,2.12c6.639,0 12.04,5.394 12.04,12.023c-0,6.628 -5.401,12.022 -12.04,12.022c-6.639,-0 -12.04,-5.394 -12.04,-12.022c-0,-6.629 5.401,-12.023 12.04,-12.023" style="fill:#ff0013;fill-rule:nonzero;stroke:#ff0014;stroke-opacity:0.81;stroke-width:1.44px;stroke-linejoin:round;stroke-miterlimit:2;"/><path d="M17.522,8.809l2.437,-2.433l18.229,18.2l-2.437,2.433l-18.229,-18.2Z" style="fill:#ff0013;stroke:#ff0014;stroke-opacity:0.81;stroke-width:1.44px;stroke-linejoin:round;stroke-miterlimit:2;"/></g></g></g></svg>