<?xml version="1.0" encoding="UTF-8" standalone="no"?><!DOCTYPE svg PUBLIC "-//W3C//DTD SVG 1.1//EN" "http://www.w3.org/Graphics/SVG/1.1/DTD/svg11.dtd"><svg width="100%" height="100%" viewBox="0 0 198 64" version="1.1" xmlns="http://www.w3.org/2000/svg" xmlns:xlink="http://www.w3.org/1999/xlink" xml:space="preserve" xmlns:serif="http://www.serif.com/" style="fill-rule:evenodd;clip-rule:evenodd;stroke-linecap:round;stroke-linejoin:round;stroke-miterlimit:1.5;"><path id="gameover" d="M197.007,31.727c0,-17.201 -13.964,-31.165 -31.164,-31.165l-133.639,-0c-17.2,-0 -31.165,13.964 -31.165,31.165c0,17.2 13.965,31.164 31.165,31.164l133.639,0c17.2,0 31.164,-13.964 31.164,-31.164Z" style="fill:#260e4c;"/><clipPath id="_clip1"><path d="M197.007,31.727c0,-17.201 -13.964,-31.165 -31.164,-31.165l-133.639,-0c-17.2,-0 -31.165,13.964 -31.165,31.165c0,17.2 13.965,31.164 31.165,31.164l133.639,0c17.2,0 31.164,-13.964 31.164,-31.164Z"/></clipPath><g clip-path="url(#_clip1)"><g transform="matrix(0.600985,0,0,0.600985,-173.148,-39.7729)"><g transform="matrix(98.7855,0,0,98.7855,590.181,151.866)"></g><text x="312.099px" y="151.866px" style="font-family:'Phosphate-Solid', 'Phosphate';font-size:98.786px;fill:#c66643;">G<tspan x="378.483px 440.323px " y="151.866px 151.866px ">AM</tspan>E!</text><path d="M401.5,85.976l15.806,0l24.993,65.89l-20.745,0l-2.173,-5.927l-19.955,-0l-2.173,5.927l-20.745,0l24.992,-65.89Zm1.149,1.664l-23.731,62.562l17.172,0l1.774,-4.836c0.24,-0.655 0.864,-1.091 1.562,-1.091l19.955,-0c0.698,-0 1.321,0.436 1.562,1.091l1.773,4.836l17.172,0l-23.73,-62.562l-13.509,0Zm11.2,45.441l-8.891,0c-0.548,0 -1.061,-0.27 -1.372,-0.722c-0.31,-0.451 -0.378,-1.027 -0.181,-1.539l4.445,-11.558c0.247,-0.642 0.865,-1.066 1.553,-1.066c0.689,-0 1.306,0.424 1.553,1.066l4.446,11.558c0.196,0.512 0.128,1.088 -0.182,1.539c-0.31,0.452 -0.823,0.722 -1.371,0.722Zm-0,-1.664l-4.446,-11.557l-4.445,11.557l8.891,0Zm29.932,-45.441l17.386,0l17.188,25.289l17.09,-25.289l17.387,0l-0,65.89l-21.042,0l0,-23.708l-13.435,19.757l-13.533,-19.757l-0,23.708l-21.041,0l-0,-65.89Zm1.663,1.664l0,62.562l17.714,0l-0,-22.044c-0,-0.73 0.475,-1.374 1.172,-1.59c0.696,-0.216 1.452,0.047 1.865,0.649l12.155,17.746l12.064,-17.741c0.411,-0.604 1.168,-0.87 1.866,-0.655c0.698,0.215 1.174,0.86 1.174,1.591l0,22.044l17.714,0l-0,-62.562l-14.839,0l-16.595,24.557c-0.309,0.457 -0.824,0.731 -1.376,0.732c-0.552,0.001 -1.068,-0.272 -1.379,-0.728l-16.693,-24.561l-14.842,0Zm119.942,47.729l21.14,-0l-0,16.497l-21.14,0l-0,-16.497Zm1.663,1.664l0,13.169l17.813,0l-0,-13.169l-17.813,-0Zm-2.355,-51.057l22.523,0l-3.359,46.429l-15.805,0l-3.359,-46.429Zm1.789,1.664l3.118,43.101l12.71,0c-0,0 3.117,-43.101 3.118,-43.101l-18.946,0Zm-208.942,20.76c-1.186,-1.053 -2.667,-1.86 -4.446,-2.42c-1.778,-0.56 -3.523,-0.84 -5.235,-0.84c-1.91,0 -3.655,0.346 -5.236,1.038c-1.58,0.691 -2.947,1.646 -4.099,2.865c-1.153,1.218 -2.058,2.683 -2.717,4.395c-0.659,1.713 -0.988,3.557 -0.988,5.532c0,1.976 0.362,3.82 1.087,5.532c0.724,1.713 1.712,3.178 2.963,4.396c1.252,1.219 2.717,2.174 4.396,2.865c1.68,0.692 3.474,1.037 5.384,1.037c2.239,0 4.281,-0.477 6.125,-1.432c1.844,-0.955 3.424,-2.256 4.741,-3.902l-5.927,0l0,-13.83l25.388,0l0,21.93c-1.514,2.701 -3.326,5.154 -5.433,7.36c-2.107,2.206 -4.462,4.1 -7.063,5.68c-2.602,1.581 -5.417,2.799 -8.446,3.655c-3.03,0.856 -6.158,1.284 -9.385,1.284c-4.742,0 -9.22,-0.889 -13.435,-2.667c-4.215,-1.778 -7.886,-4.215 -11.014,-7.31c-3.129,-3.095 -5.598,-6.75 -7.409,-10.965c-1.811,-4.215 -2.717,-8.759 -2.717,-13.633c0,-4.741 0.856,-9.22 2.569,-13.434c1.712,-4.215 4.066,-7.887 7.063,-11.015c2.996,-3.128 6.552,-5.598 10.669,-7.409c4.116,-1.811 8.544,-2.716 13.286,-2.716c3.688,-0 6.882,0.362 9.582,1.086c2.701,0.725 4.973,1.548 6.817,2.47c2.173,1.054 3.984,2.206 5.433,3.457l-11.953,16.991Zm-0.372,-2.363l10.059,-14.299c-1.119,-0.812 -2.417,-1.573 -3.893,-2.289c-0.006,-0.003 -0.012,-0.006 -0.019,-0.009c-1.758,-0.879 -3.927,-1.66 -6.503,-2.351c-2.578,-0.692 -5.629,-1.03 -9.151,-1.03c-4.502,0 -8.708,0.857 -12.616,2.576c-3.911,1.721 -7.291,4.065 -10.138,7.037c-2.853,2.979 -5.092,6.476 -6.723,10.49c-1.632,4.018 -2.446,8.288 -2.446,12.808c0,4.639 0.858,8.964 2.582,12.976c1.723,4.012 4.072,7.493 7.05,10.439c2.979,2.948 6.477,5.267 10.491,6.96c4.012,1.693 8.275,2.536 12.788,2.536c3.071,0 6.049,-0.406 8.932,-1.221c2.882,-0.814 5.56,-1.972 8.035,-3.476c2.476,-1.505 4.718,-3.307 6.724,-5.407c1.913,-2.003 3.57,-4.22 4.972,-6.651l0,-19.826l-22.06,-0l0,10.502l4.263,0c0.64,0 1.223,0.367 1.5,0.943c0.277,0.577 0.199,1.261 -0.2,1.76c-1.466,1.832 -3.225,3.278 -5.276,4.341c-2.075,1.074 -4.37,1.618 -6.89,1.618c-2.135,0 -4.14,-0.389 -6.017,-1.162c-1.882,-0.775 -3.522,-1.847 -4.923,-3.211c-1.407,-1.37 -2.521,-3.015 -3.336,-4.94c-0.809,-1.913 -1.218,-3.973 -1.218,-6.181c0,-2.189 0.369,-4.231 1.099,-6.129c0.741,-1.926 1.764,-3.571 3.061,-4.942c1.305,-1.38 2.851,-2.463 4.641,-3.246c1.783,-0.779 3.749,-1.176 5.903,-1.176c1.875,-0 3.787,0.303 5.735,0.916c1.341,0.422 2.531,0.972 3.574,1.644Zm162.578,-20.061l38.822,0l0,17.288l-17.781,-0l-0,7.31l17.485,-0l-0,16.398l-17.485,0l-0,7.607l18.473,-0l-0,17.287l-39.514,0l-0,-65.89Zm1.664,1.664l-0,62.562c-0,0 36.186,0 36.186,0c-0,0 -0,-13.959 -0,-13.959l-16.809,-0c-0.919,-0 -1.664,-0.745 -1.664,-1.664l0,-7.607c0,-0.919 0.745,-1.664 1.664,-1.664l15.821,0c0,0 0,-13.07 0,-13.07l-15.821,-0c-0.919,-0 -1.664,-0.745 -1.664,-1.664l0,-7.31c0,-0.919 0.745,-1.664 1.664,-1.664c-0,-0 16.117,-0 16.117,-0c0,-0 0,-13.96 0,-13.96l-35.494,0Z" style="fill:#f2efad;fill-opacity:0.3;"/></g></g><path d="M197.007,31.727c0,-17.201 -13.964,-31.165 -31.164,-31.165l-133.639,-0c-17.2,-0 -31.165,13.964 -31.165,31.165c0,17.2 13.965,31.164 31.165,31.164l133.639,0c17.2,0 31.164,-13.964 31.164,-31.164Z" style="fill:none;stroke:#000;stroke-width:1px;"/></svg>